<svg width="256" height="256" viewBox="0 0 256 256" fill="none" xmlns="http://www.w3.org/2000/svg">
  <defs>
    <linearGradient id="bg" x1="24" y1="18" x2="230" y2="238" gradientUnits="userSpaceOnUse">
      <stop stop-color="#F4E7C7"/>
      <stop offset="1" stop-color="#C27C4A"/>
    </linearGradient>
  </defs>
  <circle cx="128" cy="128" r="118" fill="url(#bg)" stroke="#6A3D1F" stroke-width="8"/>
  <rect x="46" y="46" width="66" height="120" fill="#FBF6EA" stroke="#6A3D1F" stroke-width="5"/>
  <rect x="144" y="46" width="66" height="120" fill="#FBF6EA" stroke="#6A3D1F" stroke-width="5"/>
  <line x1="128" y1="50" x2="128" y2="166" stroke="#9B5C34" stroke-width="4"/>
  <g stroke="#C6A27A" stroke-width="3">
    <line x1="56" y1="72" x2="102" y2="72"/>
    <line x1="56" y1="92" x2="102" y2="92"/>
    <line x1="56" y1="112" x2="102" y2="112"/>
    <line x1="56" y1="132" x2="102" y2="132"/>
    <line x1="154" y1="72" x2="200" y2="72"/>
    <line x1="154" y1="92" x2="200" y2="92"/>
    <line x1="154" y1="112" x2="200" y2="112"/>
    <line x1="154" y1="132" x2="200" y2="132"/>
  </g>
  <g stroke="#2E6E62" stroke-width="6" stroke-linecap="round">
    <line x1="84" y1="182" x2="128" y2="214"/>
    <line x1="128" y1="214" x2="172" y2="182"/>
    <line x1="128" y1="214" x2="128" y2="164"/>
  </g>
  <g fill="#2E6E62" stroke="#F9F2E3" stroke-width="4">
    <circle cx="84" cy="182" r="12"/>
    <circle cx="128" cy="214" r="12"/>
    <circle cx="172" cy="182" r="12"/>
    <circle cx="128" cy="164" r="12"/>
  </g>
  <text x="128" y="230" text-anchor="middle" font-family="'Microsoft YaHei UI', 'PingFang SC', sans-serif" font-size="26" font-weight="700" fill="#6A3D1F">经</text>
</svg>
